<svg id="Layer_1" data-name="Layer 1" xmlns="http://www.w3.org/2000/svg" viewBox="0 0 128 128">
  <title>github</title>
  <path d="M64,1.58A64,64,0,0,0,43.77,126.31c3.2.59,4.37-1.39,4.37-3.08,0-1.52-.06-5.54-.09-10.89-17.8,3.87-21.56-8.58-21.56-8.58-2.91-7.39-7.11-9.36-7.11-9.36-5.81-4,.44-3.89.44-3.89,6.42.45,9.8,6.6,9.8,6.6,5.71,9.78,15,7,18.63,5.32.58-4.14,2.23-7,4.06-8.56-14.21-1.62-29.15-7.11-29.15-31.63a24.74,24.74,0,0,1,6.59-17.17c-.66-1.62-2.85-8.13.63-16.94,0,0,5.37-1.72,17.6,6.56a60.66,60.66,0,0,1,32,0c12.22-8.28,17.58-6.56,17.58-6.56,3.49,8.81,1.29,15.32.64,16.94a24.7,24.7,0,0,1,6.58,17.17c0,24.59-15,30-29.22,31.58,2.3,2,4.34,5.88,4.34,11.85,0,8.56-.08,15.46-.08,17.56,0,1.71,1.15,3.7,4.4,3.08A64,64,0,0,0,64,1.58Z" style="fill: #fff;fill-rule: evenodd"/>
</svg>
